# xmcd
#
# Track frame offsets: 
#        150
#        15592
#        32220
#
# Disc length: 633 seconds
#
# Revision: 0
# Processed by: cddbd v1.5.2PL0 Copyright (c) Steve Scherf et al.
# Submitted via: ExactAudioCopyFreeDBPlugin 1.0
#
DISCID=1a027703
DTITLE=大西ユカリと新世界 - オモカゲ
DYEAR=2005
DGENRE=Blues
TTITLE0=オモカゲ(シングル・ヴァージョン)
TTITLE1=テネシーワルツ
TTITLE2=オモカゲ(カラオケ)
EXTD=
EXTT0=
EXTT1=
EXTT2=
PLAYORDER=
